<svg width="64" height="64" viewBox="0 0 64 64" fill="none" xmlns="http://www.w3.org/2000/svg">
<rect x="0.363636" y="0.363636" width="63.2727" height="63.2727" rx="31.6364" fill="#161A31"/>
<rect x="0.363636" y="0.363636" width="63.2727" height="63.2727" rx="31.6364" stroke="#484D69" stroke-width="0.727273"/>
<path d="M32.0001 18.9096C29.2997 18.9096 26.7099 19.9823 24.8005 21.8918C22.891 23.8012 21.8183 26.391 21.8183 29.0914C21.8183 33.2543 24.4103 37.2703 27.2554 40.3816C28.7101 41.9665 30.2974 43.4244 32.0001 44.7394C32.2541 44.5445 32.5523 44.3069 32.8946 44.0267C34.2616 42.9041 35.5482 41.6871 36.7448 40.3845C39.5899 37.2703 42.1819 33.2558 42.1819 29.0914C42.1819 26.391 41.1092 23.8012 39.1997 21.8918C37.2903 19.9823 34.7005 18.9096 32.0001 18.9096ZM32.0001 48.3118L31.1754 47.7445L31.171 47.7416L31.1623 47.7343L31.1332 47.7139L31.0241 47.6368L30.6314 47.3503C28.6413 45.8547 26.7926 44.1798 25.1085 42.3467C22.1354 39.0914 18.9092 34.3801 18.9092 29.0899C18.9092 25.618 20.2884 22.2883 22.7434 19.8333C25.1984 17.3782 28.5282 15.999 32.0001 15.999C35.472 15.999 38.8017 17.3782 41.2568 19.8333C43.7118 22.2883 45.091 25.618 45.091 29.0899C45.091 34.3801 41.8648 39.0928 38.8917 42.3438C37.208 44.1768 35.3598 45.8517 33.3703 47.3474C33.2045 47.4712 33.0372 47.5929 32.8685 47.7125L32.8379 47.7328L32.8292 47.7401L32.8263 47.7416L32.0001 48.3118ZM32.0001 26.1823C31.2285 26.1823 30.4886 26.4888 29.9431 27.0344C29.3975 27.5799 29.091 28.3198 29.091 29.0914C29.091 29.8629 29.3975 30.6029 29.9431 31.1484C30.4886 31.694 31.2285 32.0005 32.0001 32.0005C32.7716 32.0005 33.5116 31.694 34.0571 31.1484C34.6027 30.6029 34.9092 29.8629 34.9092 29.0914C34.9092 28.3198 34.6027 27.5799 34.0571 27.0344C33.5116 26.4888 32.7716 26.1823 32.0001 26.1823ZM26.1819 29.0914C26.1819 27.5483 26.7949 26.0684 27.886 24.9773C28.9771 23.8862 30.457 23.2732 32.0001 23.2732C33.5432 23.2732 35.023 23.8862 36.1142 24.9773C37.2053 26.0684 37.8183 27.5483 37.8183 29.0914C37.8183 30.6345 37.2053 32.1143 36.1142 33.2055C35.023 34.2966 33.5432 34.9096 32.0001 34.9096C30.457 34.9096 28.9771 34.2966 27.886 33.2055C26.7949 32.1143 26.1819 30.6345 26.1819 29.0914Z" fill="#999999"/>
</svg>
