<svg width="64" height="64" viewBox="0 0 64 64" fill="none" xmlns="http://www.w3.org/2000/svg">
<rect x="0.363636" y="0.363636" width="63.2727" height="63.2727" rx="31.6364" fill="#161A31"/>
<rect x="0.363636" y="0.363636" width="63.2727" height="63.2727" rx="31.6364" stroke="#484D69" stroke-width="0.727273"/>
<path d="M42.9086 46.5455C43.4873 46.5455 44.0423 46.3157 44.4514 45.9065C44.8606 45.4973 45.0905 44.9424 45.0905 44.3637V39.2728C45.0905 38.6942 44.8606 38.1392 44.4514 37.73C44.0423 37.3209 43.4873 37.091 42.9086 37.091C41.2068 37.091 39.5341 36.8292 37.9341 36.291C37.5516 36.1703 37.1433 36.1566 36.7535 36.2515C36.3638 36.3463 36.0074 36.5461 35.7232 36.8292L33.6286 38.9237C30.0101 36.9491 27.036 33.975 25.0614 30.3565L27.1414 28.2765C27.7377 27.7092 27.9559 26.8655 27.6941 26.051C27.1705 24.4655 26.9086 22.7928 26.9086 21.091C26.9086 20.5123 26.6788 19.9574 26.2696 19.5482C25.8604 19.139 25.3055 18.9092 24.7268 18.9092H19.6359C19.0573 18.9092 18.5023 19.139 18.0931 19.5482C17.684 19.9574 17.4541 20.5123 17.4541 21.091C17.4541 35.1274 28.8723 46.5455 42.9086 46.5455ZM19.6359 20.3637H24.7268C24.9197 20.3637 25.1047 20.4403 25.2411 20.5767C25.3775 20.7131 25.4541 20.8981 25.4541 21.091C25.4541 22.9528 25.745 24.771 26.3123 26.5019C26.385 26.7055 26.3705 26.9965 26.1377 27.2292L23.2723 30.0801C25.6723 34.7783 29.1923 38.2983 33.905 40.7274L36.7414 37.8619C36.945 37.6583 37.2214 37.6001 37.4832 37.6728C39.2286 38.2546 41.0468 38.5455 42.9086 38.5455C43.1015 38.5455 43.2865 38.6222 43.4229 38.7586C43.5593 38.8949 43.6359 39.0799 43.6359 39.2728V44.3637C43.6359 44.5566 43.5593 44.7416 43.4229 44.878C43.2865 45.0144 43.1015 45.091 42.9086 45.091C29.6723 45.091 18.9086 34.3274 18.9086 21.091C18.9086 20.8981 18.9853 20.7131 19.1217 20.5767C19.2581 20.4403 19.443 20.3637 19.6359 20.3637Z" fill="#999999"/>
</svg>
